<svg width="14" height="14" viewBox="0 0 14 14" fill="none" xmlns="http://www.w3.org/2000/svg">
<path d="M4.66683 7.58333L6.81116 9.2988C7.23908 9.64113 7.8628 9.5753 8.20981 9.15117L12.8335 3.5" stroke="#F3E8FF" stroke-linecap="round"/>
<path d="M0.766512 7.86597C0.932243 7.64529 1.24588 7.60076 1.46671 7.76636L1.80265 8.01832C1.95334 8.35649 2.17879 8.66766 2.48233 8.92066L3.75284 9.97925C3.31419 10.1069 2.82418 10.0347 2.43253 9.74097L0.866122 8.56617C0.645592 8.4004 0.600942 8.08674 0.766512 7.86597ZM8.36319 3.18336C8.53805 2.96964 8.8526 2.9382 9.06632 3.11304C9.28004 3.28791 9.31149 3.60245 9.13663 3.81617L7.12198 6.27711L6.3544 5.63746L8.36319 3.18336Z" fill="#F3E8FF"/>
</svg>
