<svg width="16" height="16" viewBox="0 0 16 16" fill="none" xmlns="http://www.w3.org/2000/svg">
<path d="M5.33341 8.66667L7.89441 10.7155C8.32233 11.0578 8.94605 10.992 9.29307 10.5678L14.6667 4" stroke="#AEABAB" stroke-linecap="round"/>
<path d="M0.934021 9.0332C1.09976 8.81252 1.41339 8.76797 1.63422 8.93359L3.53363 10.3584C3.57872 10.3921 3.62831 10.4152 3.67914 10.4316L4.63226 11.2256C4.11983 11.5485 3.44319 11.5406 2.93304 11.1582L1.03363 9.7334C0.812763 9.5677 0.768349 9.2541 0.934021 9.0332ZM9.61371 3.68359C9.78858 3.46994 10.1031 3.43844 10.3168 3.61328C10.5302 3.78818 10.5618 4.1028 10.3871 4.31641L7.85883 7.40527L7.09125 6.76562L9.61371 3.68359Z" fill="#AEABAB"/>
</svg>
