<svg width="16" height="16" viewBox="0 0 16 16" fill="none" xmlns="http://www.w3.org/2000/svg">
<path d="M5.33341 8.66667L7.89441 10.7155C8.32233 11.0578 8.94605 10.992 9.29307 10.5678L14.6667 4" stroke="#147AF6" stroke-linecap="round"/>
<path d="M0.933576 9.03297C1.0993 8.81224 1.41293 8.76774 1.63377 8.93336L3.53319 10.3582C3.57859 10.3922 3.62845 10.4159 3.67967 10.4324L4.63182 11.2253C4.11928 11.5482 3.44271 11.5406 2.9326 11.158L1.03318 9.73316C0.81234 9.56746 0.767914 9.25385 0.933576 9.03297ZM9.61326 3.68336C9.78812 3.46964 10.1027 3.4382 10.3164 3.61304C10.5301 3.78791 10.5616 4.10245 10.3867 4.31617L7.85936 7.40504L7.0908 6.76441L9.61326 3.68336Z" fill="#147AF6"/>
</svg>
