<svg width="55" height="55" viewBox="0 0 55 55" fill="none" xmlns="http://www.w3.org/2000/svg">
<path d="M29.792 9.16797C36.2289 9.16797 39.4478 9.16805 41.7598 10.7129C42.7603 11.3815 43.6194 12.2406 44.2881 13.2412C45.8329 15.5532 45.833 18.7721 45.833 25.209C45.833 31.6461 45.8329 34.8647 44.2881 37.1768C43.6194 38.1776 42.7606 39.0373 41.7598 39.7061C39.74 41.0556 37.0277 41.2265 32.083 41.248V41.251L29.5498 46.3184C28.7052 48.0073 26.2948 48.0073 25.4502 46.3184L22.917 41.251V41.248C17.9723 41.2265 15.26 41.0556 13.2402 39.7061C12.2394 39.0373 11.3806 38.1776 10.7119 37.1768C9.16706 34.8647 9.16699 31.6461 9.16699 25.209C9.16699 18.7721 9.16708 15.5532 10.7119 13.2412C11.3806 12.2406 12.2397 11.3815 13.2402 10.7129C15.5522 9.16805 18.7711 9.16797 25.208 9.16797H29.792ZM20.625 28.793C20.0727 28.793 19.625 29.2407 19.625 29.793C19.6252 30.3451 20.0728 30.793 20.625 30.793H27.5C28.0522 30.793 28.4998 30.3451 28.5 29.793C28.5 29.2407 28.0523 28.793 27.5 28.793H20.625ZM20.625 19.626C20.0727 19.626 19.625 20.0737 19.625 20.626C19.625 21.1783 20.0727 21.626 20.625 21.626H34.375C34.9273 21.626 35.375 21.1783 35.375 20.626C35.375 20.0737 34.9273 19.626 34.375 19.626H20.625Z" fill="#4C0D68"/>
</svg>
