<svg width="55" height="55" viewBox="0 0 55 55" fill="none" xmlns="http://www.w3.org/2000/svg">
<path d="M44.2883 13.24C45.8332 15.552 45.8332 18.7706 45.8332 25.2077C45.8332 31.6448 45.8332 34.8634 44.2883 37.1754C43.6195 38.1763 42.7601 39.0357 41.7592 39.7045C39.7395 41.0541 37.0279 41.2247 32.0832 41.2462V41.2494L29.5496 46.3166C28.705 48.0056 26.2946 48.0056 25.4501 46.3166L22.9165 41.2494V41.2462C17.9718 41.2247 15.2602 41.0541 13.2404 39.7045C12.2395 39.0357 11.3802 38.1763 10.7114 37.1754C9.1665 34.8634 9.1665 31.6448 9.1665 25.2077C9.1665 18.7706 9.1665 15.552 10.7114 13.24C11.3802 12.239 12.2395 11.3797 13.2404 10.7109C15.5525 9.16602 18.7711 9.16602 25.2082 9.16602H29.7915C36.2286 9.16602 39.4472 9.16602 41.7592 10.7109C42.7601 11.3797 43.6195 12.239 44.2883 13.24Z" stroke="black" stroke-width="2" stroke-linecap="round" stroke-linejoin="round"/>
<path d="M20.625 20.625L34.375 20.625" stroke="black" stroke-width="2" stroke-linecap="round" stroke-linejoin="round"/>
<path d="M20.625 29.791H27.5" stroke="black" stroke-width="2" stroke-linecap="round" stroke-linejoin="round"/>
</svg>
