<svg width="18" height="18" viewBox="0 0 18 18" fill="none" xmlns="http://www.w3.org/2000/svg">
<path d="M0 9C0 4.02944 4.02944 0 9 0C13.9706 0 18 4.02944 18 9C18 13.9706 13.9706 18 9 18C4.02944 18 0 13.9706 0 9Z" fill="#757576" fill-opacity="0.25"/>
<circle cx="9" cy="7" r="4" fill="white"/>
<path d="M8.99996 12C11.7073 12 14.0552 13.3177 15.2196 15.2454C15.2778 15.3418 15.2601 15.4652 15.1782 15.5425C13.5662 17.0654 11.3926 18 8.99996 18C6.60733 18 4.43367 17.0654 2.82168 15.5425C2.73985 15.4652 2.72211 15.3418 2.78031 15.2454C3.94472 13.3177 6.29261 12 8.99996 12Z" fill="white"/>
</svg>
