<svg width="36" height="36" viewBox="0 0 36 36" fill="none" xmlns="http://www.w3.org/2000/svg">
<path d="M8.25 7.65C8.25 6.80992 8.25 6.38988 8.41349 6.06901C8.5573 5.78677 8.78677 5.5573 9.06901 5.41349C9.38988 5.25 9.80992 5.25 10.65 5.25H19.2559C19.6228 5.25 19.8062 5.25 19.9788 5.29145C20.1319 5.32819 20.2782 5.3888 20.4124 5.47104C20.5638 5.5638 20.6935 5.69352 20.9529 5.95294L27.0471 12.0471C27.3065 12.3065 27.4362 12.4362 27.529 12.5876C27.6112 12.7218 27.6718 12.8681 27.7086 13.0212C27.75 13.1938 27.75 13.3772 27.75 13.7441V28.35C27.75 29.1901 27.75 29.6101 27.5865 29.931C27.4427 30.2132 27.2132 30.4427 26.931 30.5865C26.6101 30.75 26.1901 30.75 25.35 30.75H10.65C9.80992 30.75 9.38988 30.75 9.06901 30.5865C8.78677 30.4427 8.5573 30.2132 8.41349 29.931C8.25 29.6101 8.25 29.1901 8.25 28.35V7.65Z" fill="#DC2828" stroke="#DC2828"/>
<path d="M18.75 5.25V11.85C18.75 12.6901 18.75 13.1101 18.9135 13.431C19.0573 13.7132 19.2868 13.9427 19.569 14.0865C19.8899 14.25 20.3099 14.25 21.15 14.25H27.75" stroke="white"/>
</svg>
