<svg width="14" height="18" viewBox="0 0 14 18" fill="none" xmlns="http://www.w3.org/2000/svg">
<path d="M0.5 2.9C0.5 2.05992 0.5 1.63988 0.66349 1.31901C0.8073 1.03677 1.03677 0.8073 1.31901 0.66349C1.63988 0.5 2.05992 0.5 2.9 0.5H7.50589C7.87277 0.5 8.05622 0.5 8.22885 0.541445C8.3819 0.57819 8.52822 0.638797 8.66243 0.72104C8.8138 0.813802 8.94352 0.943516 9.20294 1.20294L12.7971 4.79706C13.0565 5.05648 13.1862 5.1862 13.279 5.33757C13.3612 5.47178 13.4218 5.6181 13.4586 5.77115C13.5 5.94378 13.5 6.12723 13.5 6.49411V15.1C13.5 15.9401 13.5 16.3601 13.3365 16.681C13.1927 16.9632 12.9632 17.1927 12.681 17.3365C12.3601 17.5 11.9401 17.5 11.1 17.5H2.9C2.05992 17.5 1.63988 17.5 1.31901 17.3365C1.03677 17.1927 0.8073 16.9632 0.66349 16.681C0.5 16.3601 0.5 15.9401 0.5 15.1V2.9Z" stroke="#A8A8A8"/>
<path d="M7.5 0.5V4.1C7.5 4.94008 7.5 5.36012 7.66349 5.68099C7.8073 5.96323 8.03677 6.1927 8.31901 6.33651C8.63988 6.5 9.05992 6.5 9.9 6.5H13.5" stroke="#A8A8A8"/>
</svg>
