<svg width="40" height="40" viewBox="0 0 40 40" fill="none" xmlns="http://www.w3.org/2000/svg">
<path d="M21.9526 5H15C11.8573 5 10.2859 5 9.30962 5.97631C8.33331 6.95262 8.33331 8.52397 8.33331 11.6667V28.3333C8.33331 31.476 8.33331 33.0474 9.30962 34.0237C10.2859 35 11.8573 35 15 35H25C28.1427 35 29.714 35 30.6903 34.0237C31.6666 33.0474 31.6666 31.476 31.6666 28.3333V14.714C31.6666 14.0328 31.6666 13.6922 31.5398 13.3859C31.4129 13.0796 31.1721 12.8387 30.6903 12.357L24.3096 5.97631C23.8279 5.49459 23.587 5.25373 23.2808 5.12687C22.9745 5 22.6339 5 21.9526 5Z" stroke="#4C0D68" stroke-width="2"/>
<path d="M21.6667 5V11.6667C21.6667 13.238 21.6667 14.0237 22.1548 14.5118C22.643 15 23.4287 15 25 15H31.6667" stroke="#4C0D68" stroke-width="2"/>
</svg>
