<svg width="55" height="55" viewBox="0 0 55 55" fill="none" xmlns="http://www.w3.org/2000/svg">
<circle cx="27.5" cy="18.334" r="5.875" stroke="black" stroke-width="2" stroke-linecap="round"/>
<path d="M31.4251 14.8236C31.8928 14.0135 32.5901 13.3604 33.429 12.9467C34.2679 12.533 35.2106 12.3774 36.138 12.4994C37.0653 12.6215 37.9356 13.0159 38.6388 13.6326C39.3421 14.2493 39.8466 15.0607 40.0887 15.9642C40.3308 16.8676 40.2995 17.8226 39.9989 18.7083C39.6982 19.594 39.1417 20.3707 38.3996 20.9401C37.6575 21.5095 36.7633 21.846 35.83 21.9072C34.8966 21.9684 33.9661 21.7514 33.1561 21.2837" stroke="black" stroke-width="2"/>
<path d="M23.5749 14.8236C23.1072 14.0135 22.4099 13.3604 21.571 12.9467C20.7321 12.533 19.7894 12.3774 18.862 12.4994C17.9347 12.6215 17.0644 13.0159 16.3612 13.6326C15.6579 14.2493 15.1534 15.0607 14.9113 15.9642C14.6692 16.8676 14.7005 17.8226 15.0011 18.7083C15.3018 19.594 15.8583 20.3707 16.6004 20.9401C17.3425 21.5095 18.2367 21.846 19.17 21.9072C20.1034 21.9684 21.0339 21.7514 21.8439 21.2837" stroke="black" stroke-width="2"/>
<path d="M27.5002 28.6465C38.0319 28.6465 39.7636 38.2466 40.0483 41.4035C40.0979 41.9536 39.6566 42.3965 39.1043 42.3965H15.896C15.3437 42.3965 14.9024 41.9536 14.952 41.4035C15.2368 38.2466 16.9684 28.6465 27.5002 28.6465Z" stroke="black" stroke-width="2" stroke-linecap="round"/>
<path d="M35.5205 26.3555V25.3555H35.5205L35.5205 26.3555ZM44.5225 36.7227L45.5062 36.5432L45.5062 36.5432L44.5225 36.7227ZM39.3711 37.8135L38.4105 38.0914L38.6194 38.8135H39.3711V37.8135ZM29.9902 28.8447L29.2516 28.1706L28.0111 29.5296L29.8264 29.8312L29.9902 28.8447ZM35.5205 26.3555V27.3555C38.2997 27.3555 40.1437 28.9333 41.4081 30.9896C42.6861 33.0678 43.286 35.5171 43.5387 36.9021L44.5225 36.7227L45.5062 36.5432C45.2367 35.0661 44.5814 32.3318 43.1118 29.942C41.6287 27.5302 39.2328 25.3555 35.5205 25.3555V26.3555ZM44.5225 36.7227L43.5387 36.9021C43.5376 36.8959 43.537 36.8816 43.5419 36.8642C43.5465 36.8482 43.5538 36.8365 43.5604 36.829C43.5737 36.8136 43.5858 36.8135 43.582 36.8135V37.8135V38.8135C44.7513 38.8135 45.7326 37.7841 45.5062 36.5432L44.5225 36.7227ZM43.582 37.8135V36.8135H39.3711V37.8135V38.8135H43.582V37.8135ZM39.3711 37.8135L40.3317 37.5355C39.2591 33.8286 36.6053 28.93 30.1541 27.8582L29.9902 28.8447L29.8264 29.8312C35.1784 30.7203 37.4359 34.7233 38.4105 38.0914L39.3711 37.8135ZM29.9902 28.8447L30.7288 29.5189C31.8982 28.2378 33.4342 27.3555 35.5205 27.3555L35.5205 26.3555L35.5205 25.3555C32.7783 25.3555 30.7317 26.549 29.2516 28.1706L29.9902 28.8447Z" fill="black"/>
<path d="M19.479 26.3555V25.3555H19.479L19.479 26.3555ZM25.0083 28.8447L25.1723 29.8312L26.9875 29.5294L25.7468 28.1705L25.0083 28.8447ZM15.6284 37.8135V38.8135H16.3801L16.589 38.0914L15.6284 37.8135ZM11.4175 37.8135L11.4174 38.8135H11.4175V37.8135ZM10.4771 36.7227L9.49329 36.5432L9.49329 36.5432L10.4771 36.7227ZM19.479 26.3555V27.3555C21.5648 27.3555 23.1003 28.2379 24.2698 29.519L25.0083 28.8447L25.7468 28.1705C24.267 26.5495 22.2211 25.3555 19.479 25.3555V26.3555ZM25.0083 28.8447L24.8443 27.8583C18.3941 28.9305 15.7403 33.8289 14.6678 37.5355L15.6284 37.8135L16.589 38.0914C17.5635 34.7235 19.8211 30.7207 25.1723 29.8312L25.0083 28.8447ZM15.6284 37.8135V36.8135H11.4175V37.8135V38.8135H15.6284V37.8135ZM11.4175 37.8135L11.4176 36.8135C11.4138 36.8135 11.4258 36.8136 11.4392 36.8289C11.4457 36.8364 11.453 36.8482 11.4576 36.8642C11.4626 36.8815 11.462 36.8959 11.4608 36.9021L10.4771 36.7227L9.49329 36.5432C9.26687 37.7842 10.2484 38.8133 11.4174 38.8135L11.4175 37.8135ZM10.4771 36.7227L11.4608 36.9021C11.7135 35.5172 12.3134 33.0679 13.5914 30.9897C14.8559 28.9334 16.6999 27.3556 19.479 27.3555L19.479 26.3555L19.479 25.3555C15.7667 25.3556 13.3709 27.5303 11.8878 29.9421C10.4181 32.3319 9.76278 35.0661 9.49329 36.5432L10.4771 36.7227Z" fill="black"/>
</svg>
