<svg width="50" height="50" viewBox="0 0 50 50" fill="none" xmlns="http://www.w3.org/2000/svg">
<circle cx="24.9998" cy="18.7493" r="8.33333" fill="#4C0D68"/>
<circle cx="35.4165" cy="18.75" r="6.25" fill="#4C0D68"/>
<circle cx="14.5835" cy="18.75" r="6.25" fill="#4C0D68"/>
<path d="M35.417 27.082C41.2472 27.0823 43.082 33.7428 43.583 36.4121C43.6918 36.9934 43.236 37.499 42.6445 37.499H36.6006C35.7609 34.354 34.1365 30.7871 30.9961 28.749C32.1256 27.7514 33.5706 27.082 35.417 27.082Z" fill="#4C0D68"/>
<path d="M14.5831 27.082C16.4292 27.082 17.8736 27.7516 19.003 28.749C15.8629 30.7871 14.2391 34.3542 13.3995 37.499H7.35454C6.7632 37.4989 6.30822 36.9933 6.41704 36.4121C6.91812 33.7428 8.75272 27.0821 14.5831 27.082Z" fill="#4C0D68"/>
<path d="M25.0002 29.166C33.6154 29.166 35.1053 37.7164 35.363 40.6738C35.4109 41.224 34.9691 41.666 34.4168 41.666H15.5835C15.0312 41.666 14.5894 41.224 14.6374 40.6738C14.895 37.7164 16.385 29.166 25.0002 29.166Z" fill="#4C0D68"/>
</svg>
