<svg width="32" height="32" viewBox="0 0 32 32" fill="none" xmlns="http://www.w3.org/2000/svg">
<path d="M3.33325 7.33399C3.33325 5.12485 5.12411 3.33398 7.33325 3.33398H24.6666C26.8757 3.33398 28.6666 5.12485 28.6666 7.33398V24.6673C28.6666 26.8765 26.8757 28.6673 24.6666 28.6673H7.33325C5.12412 28.6673 3.33325 26.8765 3.33325 24.6673V7.33399Z" fill="#5382C3" stroke="#5382C3"/>
<path d="M3.33325 19.3325L8.30542 14.3605C9.18775 13.4782 10.6537 13.6103 11.364 14.6363L14.7664 19.5506C15.431 20.5107 16.7734 20.6995 17.6772 19.9601L21.9324 16.4786C22.7277 15.828 23.8865 15.8858 24.6131 16.6123L28.6666 20.6659" stroke="white"/>
<circle cx="22" cy="10" r="2" fill="white" stroke="white" stroke-linecap="round"/>
</svg>
