<svg width="20" height="20" viewBox="0 0 20 20" fill="none" xmlns="http://www.w3.org/2000/svg">
<rect width="20" height="20" fill="white"/>
<path d="M0.5 4.5C0.5 2.29086 2.29086 0.5 4.5 0.5H15.5C17.7091 0.5 19.5 2.29086 19.5 4.5V15.5C19.5 17.7091 17.7091 19.5 15.5 19.5H4.5C2.29086 19.5 0.5 17.7091 0.5 15.5V4.5Z" stroke="#A8A8A8"/>
<path d="M2 11L3.8055 9.1945C4.68783 8.31217 6.1538 8.44435 6.86408 9.47026L8.76644 12.218C9.43112 13.1781 10.7735 13.3669 11.6773 12.6275L14.0991 10.646C14.8944 9.99537 16.0533 10.0532 16.7798 10.7798L18 12" stroke="#A8A8A8" stroke-linecap="round"/>
<circle cx="14.5" cy="5.5" r="1.5" fill="#A8A8A8"/>
</svg>
