<svg width="60" height="60" viewBox="0 0 60 60" fill="none" xmlns="http://www.w3.org/2000/svg">
<rect width="60" height="60" rx="15" fill="#4C0D68"/>
<path d="M30.5 12.625C35.7418 12.625 38.3632 12.6251 40.4307 13.4814C43.1869 14.6232 45.3768 16.8131 46.5186 19.5693C47.3749 21.6368 47.375 24.2582 47.375 29.5C47.375 34.7418 47.3749 37.3632 46.5186 39.4307C45.3768 42.1869 43.1869 44.3768 40.4307 45.5186C38.3632 46.3749 35.7418 46.375 30.5 46.375H24.875C19.5717 46.375 16.92 46.3751 15.2725 44.7275C13.6249 43.08 13.625 40.4283 13.625 35.125V29.5C13.625 24.2582 13.6251 21.6368 14.4814 19.5693C15.6232 16.8131 17.8131 14.6232 20.5693 13.4814C22.6368 12.6251 25.2582 12.625 30.5 12.625ZM30.5 22.875C29.9479 22.8751 29.5001 23.3229 29.5 23.875V28.499H24.875C24.3229 28.4991 23.8752 28.9469 23.875 29.499C23.875 30.0513 24.3228 30.4989 24.875 30.499H29.5V35.125C29.5 35.6772 29.9478 36.1249 30.5 36.125C31.0522 36.1249 31.5 35.6772 31.5 35.125V30.499H36.125C36.6772 30.4989 37.125 30.0513 37.125 29.499C37.1248 28.9469 36.6771 28.4991 36.125 28.499H31.5V23.875C31.4999 23.3229 31.0521 22.8751 30.5 22.875Z" fill="white"/>
</svg>
