<svg width="21" height="21" viewBox="0 0 21 21" fill="none" xmlns="http://www.w3.org/2000/svg">
<path d="M12.6358 3.53449C13.2888 3.09912 13.6153 2.88143 13.9711 2.91666C14.3269 2.95189 14.6044 3.22939 15.1594 3.78438L17.2156 5.84062C17.7706 6.39561 18.0481 6.67311 18.0833 7.02888C18.1186 7.38465 17.9009 7.71118 17.4655 8.36424L16.1366 10.3576C15.7544 10.9309 15.5633 11.2175 15.3987 11.517C15.116 12.0313 14.8907 12.5751 14.727 13.1387C14.6316 13.4668 14.5641 13.8046 14.4289 14.4803L14.2618 15.3158C14.1381 15.9346 13.4211 16.2242 12.9023 15.8651V15.8651C9.86731 13.7639 7.23609 11.1327 5.13494 8.0977V8.0977C4.77577 7.57889 5.0654 6.86192 5.68416 6.73817L6.51975 6.57105C7.19538 6.43592 7.5332 6.36836 7.86134 6.27302C8.42491 6.10927 8.96875 5.884 9.48304 5.60129C9.78249 5.43668 10.0691 5.24558 10.6424 4.86338L12.6358 3.53449Z" fill="black" stroke="black" stroke-width="2"/>
<path d="M4.375 16.625L8.3125 12.6875" stroke="black" stroke-width="2" stroke-linecap="round"/>
</svg>
