<svg width="18" height="15" viewBox="0 0 18 15" fill="none" xmlns="http://www.w3.org/2000/svg">
<path d="M0.999999 6L0.646446 6.35355L0.292892 6L0.646446 5.64645L0.999999 6ZM17.5 14C17.5 14.2761 17.2761 14.5 17 14.5C16.7239 14.5 16.5 14.2761 16.5 14L17 14L17.5 14ZM6 11L5.64645 11.3536L0.646446 6.35355L0.999999 6L1.35355 5.64645L6.35355 10.6464L6 11ZM0.999999 6L0.646446 5.64645L5.64645 0.646446L6 1L6.35355 1.35355L1.35355 6.35355L0.999999 6ZM0.999999 6L0.999999 5.5L11 5.5L11 6L11 6.5L0.999999 6.5L0.999999 6ZM17 12L17.5 12L17.5 14L17 14L16.5 14L16.5 12L17 12ZM11 6L11 5.5C14.5898 5.5 17.5 8.41015 17.5 12L17 12L16.5 12C16.5 8.96243 14.0376 6.5 11 6.5L11 6Z" fill="#222222"/>
</svg>
