<svg width="42" height="42" viewBox="0 0 42 42" fill="none" xmlns="http://www.w3.org/2000/svg">
<path d="M9.99811 13.9967L13.433 20.0077C13.7098 20.4922 13.8482 20.7344 13.8482 21C13.8482 21.2656 13.7098 21.5078 13.433 21.9923L9.99811 28.0033C8.75981 30.1703 8.14066 31.2539 8.62348 31.7912C9.1063 32.3285 10.2496 31.8283 12.5362 30.8279L30.8119 22.8323C32.6074 22.0468 33.5051 21.654 33.5051 21C33.5051 20.346 32.6074 19.9532 30.8119 19.1677L12.5362 11.1721C10.2496 10.1717 9.1063 9.67151 8.62348 10.2088C8.14066 10.7461 8.75981 11.8297 9.99811 13.9967Z" fill="#4C0D68"/>
</svg>
