<svg width="40" height="40" viewBox="0 0 40 40" fill="none" xmlns="http://www.w3.org/2000/svg">
<path d="M16.9063 11.0461C18.2173 7.77772 18.8728 6.14355 20 6.14355C21.1272 6.14355 21.7827 7.77772 23.0937 11.0461L23.1548 11.1982C23.8954 13.0447 24.2658 13.9679 25.0205 14.5291C25.7753 15.0902 26.766 15.1789 28.7475 15.3564L29.1058 15.3885C32.3488 15.6789 33.9703 15.8241 34.3173 16.8558C34.6642 17.8874 33.46 18.983 31.0516 21.1741L30.2478 21.9054C29.0286 23.0146 28.4191 23.5692 28.1349 24.2961C28.0819 24.4317 28.0379 24.5706 28.003 24.712C27.8163 25.4697 27.9948 26.2743 28.3518 27.8834L28.4629 28.3843C29.119 31.3415 29.4471 32.8201 28.8743 33.4579C28.6603 33.6962 28.3821 33.8678 28.0731 33.9521C27.2461 34.1778 26.0719 33.221 23.7237 31.3075C22.1817 30.0511 21.4107 29.4228 20.5256 29.2815C20.1774 29.2259 19.8226 29.2259 19.4744 29.2815C18.5893 29.4228 17.8183 30.0511 16.2763 31.3075C13.9281 33.221 12.7539 34.1778 11.9269 33.9521C11.6179 33.8678 11.3397 33.6962 11.1257 33.4579C10.5529 32.8201 10.881 31.3415 11.5371 28.3843L11.6482 27.8834C12.0052 26.2743 12.1837 25.4697 11.997 24.712C11.9621 24.5706 11.9181 24.4317 11.8651 24.2961C11.5809 23.5692 10.9714 23.0146 9.75218 21.9054L8.94838 21.1741C6.53997 18.983 5.33577 17.8874 5.68273 16.8558C6.0297 15.8241 7.65121 15.6789 10.8942 15.3885L11.2525 15.3564C13.234 15.1789 14.2248 15.0902 14.9795 14.5291C15.7343 13.9679 16.1046 13.0447 16.8452 11.1982L16.9063 11.0461Z" stroke="black"/>
</svg>
