<svg width="20" height="20" viewBox="0 0 20 20" fill="none" xmlns="http://www.w3.org/2000/svg">
<path d="M8.58958 6.01582C9.12464 4.68192 9.39217 4.01496 9.82682 3.92253C9.9411 3.89822 10.0592 3.89822 10.1735 3.92253C10.6082 4.01496 10.8757 4.68192 11.4108 6.01582C11.715 6.77439 11.8672 7.15367 12.1518 7.41164C12.2317 7.484 12.3184 7.54844 12.4107 7.60407C12.7397 7.80238 13.1504 7.83917 13.9719 7.91274C15.3626 8.03728 16.0579 8.09955 16.2702 8.49601C16.3142 8.57811 16.3441 8.66701 16.3587 8.75901C16.4291 9.2032 15.9179 9.66825 14.8956 10.5984L14.6117 10.8566C14.1337 11.2915 13.8948 11.5089 13.7565 11.7802C13.6736 11.943 13.618 12.1183 13.592 12.2991C13.5485 12.6005 13.6185 12.9159 13.7585 13.5467L13.8085 13.7721C14.0595 14.9034 14.185 15.469 14.0283 15.7471C13.8876 15.9968 13.6284 16.1567 13.3421 16.1704C13.0233 16.1856 12.5741 15.8196 11.6758 15.0876C11.084 14.6053 10.7881 14.3642 10.4595 14.27C10.1593 14.1839 9.84099 14.1839 9.54078 14.27C9.21227 14.3642 8.91635 14.6053 8.32451 15.0876C7.4262 15.8196 6.97704 16.1856 6.65827 16.1704C6.37194 16.1567 6.11274 15.9968 5.97201 15.7471C5.81535 15.469 5.94085 14.9034 6.19185 13.7721L6.24186 13.5467C6.38182 12.9159 6.4518 12.6005 6.40837 12.2991C6.38232 12.1183 6.32672 11.943 6.2438 11.7802C6.10558 11.5089 5.8666 11.2915 5.38865 10.8566L5.10475 10.5984C4.08243 9.66825 3.57127 9.2032 3.64166 8.75901C3.65624 8.66701 3.68614 8.57811 3.73011 8.49601C3.94245 8.09955 4.63777 8.03728 6.0284 7.91274C6.84989 7.83917 7.26063 7.80238 7.58966 7.60407C7.68195 7.54844 7.76863 7.484 7.84848 7.41164C8.13316 7.15367 8.2853 6.77439 8.58958 6.01582Z" fill="black" stroke="black" stroke-width="2"/>
</svg>
