<svg width="24" height="24" viewBox="0 0 24 24" fill="none" xmlns="http://www.w3.org/2000/svg">
<path d="M10.1439 6.62704C10.9305 4.66605 11.3238 3.68555 12.0001 3.68555C12.6764 3.68555 13.0697 4.66605 13.8563 6.62705L13.893 6.71836C14.3373 7.82623 14.5595 8.38016 15.0124 8.71685C15.4652 9.05354 16.0597 9.10678 17.2486 9.21326L17.4636 9.2325C19.4094 9.40677 20.3823 9.4939 20.5905 10.1129C20.7986 10.7319 20.0761 11.3892 18.6311 12.7039L18.1488 13.1427C17.4173 13.8082 17.0515 14.1409 16.8811 14.5771C16.8493 14.6584 16.8228 14.7418 16.8019 14.8266C16.6899 15.2813 16.797 15.764 17.0112 16.7295L17.0778 17.03C17.4715 18.8043 17.6684 19.6915 17.3247 20.0741C17.1963 20.2171 17.0293 20.3201 16.8439 20.3707C16.3477 20.5061 15.6433 19.932 14.2343 18.7839C13.3091 18.0301 12.8465 17.6531 12.3154 17.5683C12.1065 17.535 11.8937 17.535 11.6847 17.5683C11.1536 17.6531 10.6911 18.0301 9.76589 18.7839C8.35694 19.932 7.65246 20.5061 7.15626 20.3707C6.97084 20.3201 6.80393 20.2171 6.67551 20.0741C6.33183 19.6915 6.52866 18.8043 6.92234 17.03L6.98902 16.7295C7.20322 15.764 7.31033 15.2813 7.19827 14.8266C7.17737 14.7418 7.15093 14.6584 7.11913 14.5771C6.94866 14.1409 6.58291 13.8082 5.8514 13.1427L5.36912 12.7039C3.92408 11.3892 3.20155 10.7319 3.40973 10.1129C3.61791 9.4939 4.59082 9.40677 6.53663 9.2325L6.75157 9.21326C7.94049 9.10678 8.53494 9.05354 8.98779 8.71685C9.44064 8.38016 9.66284 7.82623 10.1072 6.71836L10.1439 6.62704Z" stroke="#222222"/>
</svg>
