<svg width="30" height="30" viewBox="0 0 30 30" fill="none" xmlns="http://www.w3.org/2000/svg">
<path d="M12.8841 9.02471C13.6867 7.02385 14.088 6.02342 14.74 5.88477C14.9114 5.84831 15.0886 5.84831 15.26 5.88477C15.912 6.02342 16.3133 7.02385 17.1159 9.02471C17.5723 10.1626 17.8005 10.7315 18.2275 11.1184C18.3473 11.227 18.4773 11.3236 18.6158 11.4071C19.1093 11.7046 19.7254 11.7597 20.9576 11.8701C23.0436 12.0569 24.0866 12.1503 24.4051 12.745C24.471 12.8681 24.5159 13.0015 24.5378 13.1395C24.6434 13.8058 23.8766 14.5034 22.3431 15.8985L21.9173 16.2859C21.2003 16.9382 20.8419 17.2643 20.6345 17.6713C20.5102 17.9155 20.4268 18.1784 20.3877 18.4496C20.3226 18.9017 20.4275 19.3748 20.6375 20.3211L20.7125 20.6591C21.089 22.356 21.2772 23.2045 21.0422 23.6216C20.8311 23.9962 20.4423 24.236 20.0128 24.2565C19.5347 24.2793 18.861 23.7303 17.5135 22.6324C16.6257 21.909 16.1818 21.5473 15.6891 21.406C15.2388 21.2768 14.7612 21.2768 14.3109 21.406C13.8182 21.5473 13.3743 21.909 12.4865 22.6324C11.1391 23.7303 10.4653 24.2793 9.98717 24.2565C9.55767 24.236 9.16886 23.9962 8.95778 23.6216C8.72279 23.2045 8.91103 22.3561 9.28753 20.6591L9.36254 20.3211C9.57248 19.3748 9.67745 18.9017 9.61231 18.4496C9.57323 18.1784 9.48984 17.9155 9.36546 17.6713C9.15812 17.2643 8.79966 16.9382 8.08272 16.2859L7.65688 15.8985C6.1234 14.5034 5.35665 13.8058 5.46225 13.1395C5.48412 13.0015 5.52896 12.8681 5.59493 12.745C5.91343 12.1503 6.9564 12.0569 9.04236 11.8701C10.2746 11.7597 10.8907 11.7046 11.3843 11.4071C11.5227 11.3236 11.6527 11.227 11.7725 11.1184C12.1995 10.7315 12.4277 10.1626 12.8841 9.02471Z" fill="#4C0D68" stroke="#4C0D68" stroke-width="2"/>
</svg>
